<svg width="8" height="5" viewBox="0 0 8 5" fill="none" xmlns="http://www.w3.org/2000/svg">
<path d="M6.75646 0.15941C6.8947 0.0560331 7.07867 -0.0011178 7.26954 1.65693e-05C7.46041 0.00115094 7.64325 0.0604821 7.77949 0.16549C7.91573 0.270498 7.9947 0.41297 7.99974 0.562843C8.00479 0.712715 7.93551 0.858266 7.80653 0.968782L3.89085 4.81523C3.82352 4.87219 3.74226 4.9179 3.65192 4.94963C3.56158 4.98137 3.46403 4.99846 3.36509 4.9999C3.26614 5.00134 3.16785 4.98709 3.07608 4.95801C2.98431 4.92893 2.90094 4.88561 2.83097 4.83064L0.234262 2.79103C0.161948 2.7381 0.103946 2.67427 0.063718 2.60336C0.0234896 2.53244 0.00185823 2.45589 0.000114546 2.37826C-0.00162914 2.30064 0.0165507 2.22353 0.053569 2.15155C0.0905874 2.07956 0.145686 2.01417 0.215578 1.95927C0.28547 1.90437 0.368724 1.86109 0.460372 1.83202C0.552021 1.80294 0.650187 1.78866 0.749014 1.79003C0.847841 1.7914 0.945304 1.80839 1.03559 1.83999C1.12588 1.87159 1.20713 1.91715 1.27452 1.97395L3.32951 3.58729L6.73782 0.176369C6.74395 0.170434 6.7505 0.164772 6.75744 0.15941H6.75646Z" fill="#868686"/>
</svg>
